<?xml version="1.0" standalone="no"?>
<!DOCTYPE svg PUBLIC "-//W3C//DTD SVG 20010904//EN"
 "http://www.w3.org/TR/2001/REC-SVG-20010904/DTD/svg10.dtd">
<svg version="1.0" xmlns="http://www.w3.org/2000/svg"
 width="700.000000pt" height="700.000000pt" viewBox="0 0 700.000000 700.000000"
 preserveAspectRatio="xMidYMid meet">
<metadata>
Created by potrace 1.14, written by Peter Selinger 2001-2017
</metadata>
<g transform="translate(0.000000,700.000000) scale(0.100000,-0.100000)"
fill="#000000" stroke="none">
<path d="M790 6993 c-381 -66 -662 -319 -762 -684 l-23 -84 0 -2715 0 -2715
23 -85 c98 -370 406 -642 777 -686 78 -9 5279 -9 5367 0 425 45 769 398 806
828 9 110 7 5288 -2 5353 -50 339 -280 625 -596 739 -162 59 14 55 -2895 54
-1469 0 -2681 -3 -2695 -5z m540 -376 c451 -110 723 -207 906 -325 368 -236
281 -515 -279 -896 -54 -36 -100 -66 -102 -66 -3 0 -28 -15 -57 -33 -119 -76
-490 -269 -710 -371 -203 -93 -730 -316 -747 -316 -4 0 -7 124 -7 276 l1 277
45 13 c386 108 524 149 735 219 389 129 589 222 682 314 79 80 62 166 -45 220
-92 46 -301 93 -520 116 -26 3 -60 7 -77 10 -16 2 -61 7 -100 10 -38 3 -88 8
-110 10 -22 2 -69 6 -105 9 -36 4 -96 8 -135 11 -83 5 -252 17 -280 20 -11 1
-36 3 -56 4 -34 1 -36 3 -32 29 18 119 46 190 108 277 68 95 157 162 270 205
84 31 130 37 290 34 128 -2 156 -6 325 -47z m1539 15 c200 -69 338 -166 381
-267 84 -195 -97 -484 -510 -820 -25 -20 -53 -43 -64 -52 -65 -53 -264 -195
-401 -285 -140 -93 -489 -308 -499 -308 -2 0 -54 -29 -115 -65 -62 -36 -114
-65 -116 -65 -2 0 -26 -13 -52 -28 -113 -67 -639 -336 -818 -419 -49 -23 -143
-67 -208 -97 -65 -31 -122 -56 -126 -56 -4 0 -7 77 -7 172 l1 172 295 123
c162 68 313 132 335 142 22 10 83 38 135 62 160 73 518 254 650 330 733 419
960 784 672 1079 -126 128 -322 228 -647 332 -77 25 -165 51 -195 58 -30 8
-59 17 -63 20 -4 4 277 6 625 6 l633 -2 94 -32z m2001 30 c0 -2 -15 -20 -34
-40 -18 -21 -71 -80 -116 -132 -472 -543 -897 -939 -1269 -1185 -216 -142
-378 -228 -811 -427 -511 -235 -1011 -524 -1310 -757 -390 -303 -700 -650
-925 -1037 l-71 -122 0 553 c1 304 3 555 6 558 3 3 82 40 175 83 522 239 1278
642 1620 862 459 295 660 447 888 671 145 142 246 280 298 406 13 33 13 33 26
90 37 168 -52 327 -245 436 l-81 46 925 0 c508 0 924 -2 924 -5z m788 -6 c-49
-39 -437 -352 -513 -415 -11 -9 -92 -75 -180 -147 -88 -72 -221 -182 -295
-243 -74 -62 -144 -120 -155 -129 -55 -46 -211 -178 -215 -182 -3 -3 -61 -53
-130 -112 -69 -58 -134 -114 -146 -124 -12 -11 -50 -44 -85 -74 -100 -87 -243
-213 -259 -230 -8 -8 -55 -51 -105 -95 -49 -44 -95 -84 -101 -90 -243 -216
-781 -757 -945 -950 -19 -22 -42 -49 -53 -60 -10 -11 -53 -63 -95 -115 -364
-447 -534 -794 -518 -1053 6 -92 8 -106 32 -161 69 -163 229 -277 488 -345 74
-20 94 -24 211 -41 212 -32 700 -34 991 -6 17 2 66 6 110 10 44 4 91 9 105 11
14 2 54 6 90 9 36 3 74 8 85 10 11 2 47 7 80 10 33 4 71 9 85 11 35 5 111 17
135 20 33 4 178 26 205 31 14 2 66 11 115 18 130 21 237 40 535 97 314 60 257
49 515 104 116 25 221 48 235 51 14 3 84 18 156 35 73 16 140 31 150 34 11 2
69 15 129 30 251 60 317 75 326 75 6 0 8 -139 7 -351 l-3 -350 -220 -4 c-121
-3 -272 -7 -335 -10 -63 -3 -153 -8 -200 -10 -140 -7 -476 -32 -530 -40 -14
-2 -56 -6 -95 -10 -87 -8 -133 -14 -165 -20 -14 -2 -50 -7 -80 -10 -30 -4 -66
-8 -80 -10 -14 -2 -56 -9 -95 -15 -38 -6 -104 -17 -145 -25 -41 -8 -86 -16
-100 -19 -83 -15 -204 -42 -335 -76 -431 -113 -746 -256 -975 -444 -160 -132
-250 -176 -430 -211 -94 -18 -338 -17 -435 2 -38 7 -83 16 -100 18 -329 57
-915 315 -1360 600 -229 147 -386 255 -551 378 l-81 61 1 341 1 340 76 145
c220 424 556 816 979 1142 299 229 785 510 1270 733 644 295 885 443 1290 789
117 100 520 500 650 646 47 52 108 119 135 150 28 30 93 105 145 165 52 61 98
113 103 116 16 11 690 6 675 -5z m536 -3 c30 -9 30 -9 8 -24 -12 -9 -47 -40
-79 -70 -32 -30 -112 -103 -178 -164 -66 -60 -127 -117 -135 -125 -9 -8 -45
-42 -80 -75 -116 -107 -351 -327 -465 -435 -143 -135 -809 -802 -900 -901 -39
-41 -93 -100 -121 -130 -163 -174 -410 -467 -535 -634 -375 -499 -520 -865
-438 -1107 63 -187 227 -287 548 -333 91 -13 516 -14 581 -1 14 2 57 7 95 11
39 3 81 8 95 10 14 2 48 7 75 10 69 8 107 14 205 30 47 8 103 17 125 20 22 4
47 8 55 10 8 2 29 7 45 9 17 3 95 19 175 36 80 17 156 33 170 36 170 34 735
178 1035 263 l170 48 3 -200 c1 -110 1 -202 -1 -204 -7 -6 -586 -144 -703
-167 -11 -2 -111 -24 -224 -49 -175 -39 -652 -136 -745 -152 -16 -2 -79 -14
-140 -25 -60 -11 -126 -23 -145 -26 -19 -3 -71 -11 -115 -19 -44 -8 -96 -16
-115 -19 -187 -27 -332 -48 -365 -52 -22 -2 -51 -7 -65 -9 -46 -8 -186 -23
-380 -40 -41 -4 -91 -9 -110 -10 -229 -23 -726 -23 -880 -1 -14 3 -43 6 -65 9
-228 30 -442 114 -540 212 -26 26 -75 94 -75 104 0 7 -7 26 -16 43 -18 35 -26
183 -13 233 4 16 10 41 13 55 7 43 57 172 93 244 123 245 331 525 651 876 166
182 694 703 848 837 12 10 57 50 100 90 97 88 341 302 627 550 52 44 643 538
687 573 25 19 60 49 80 66 32 27 256 210 584 475 190 153 152 138 355 134 97
-2 189 -7 205 -12z m195 -84 c106 -70 198 -193 232 -307 l12 -42 -264 -263
c-673 -667 -1131 -1210 -1390 -1649 -338 -570 -312 -902 81 -1005 120 -31 417
-23 645 18 33 6 74 13 90 16 72 12 465 117 630 168 99 31 190 59 203 62 l22 5
0 -174 0 -174 -97 -27 c-304 -87 -937 -251 -1043 -271 -14 -2 -47 -10 -75 -16
-27 -6 -61 -14 -75 -16 -14 -3 -88 -18 -165 -34 -77 -15 -153 -31 -170 -33
-181 -30 -287 -48 -320 -52 -22 -3 -53 -8 -70 -10 -16 -3 -52 -7 -80 -10 -27
-3 -68 -7 -90 -10 -314 -36 -708 -20 -840 35 -11 4 -36 14 -55 21 -50 18 -135
76 -166 112 -123 145 -85 400 107 735 162 280 435 635 770 997 146 159 196
211 309 328 196 202 719 718 845 833 17 15 89 82 160 149 103 97 395 368 451
420 130 119 212 194 232 213 14 12 31 22 37 22 7 0 40 -18 74 -41z m194 -1521
c-106 -96 -352 -345 -423 -428 -36 -41 -73 -83 -83 -95 -44 -47 -161 -210
-198 -272 -159 -272 -76 -408 214 -348 120 25 331 99 485 170 29 14 57 25 62
25 6 0 10 -84 10 -219 l0 -219 -87 -28 c-49 -15 -92 -28 -98 -30 -5 -1 -48
-14 -95 -29 -145 -45 -172 -53 -291 -84 -127 -33 -279 -68 -337 -77 -20 -3
-39 -7 -42 -9 -3 -2 -33 -7 -65 -10 -33 -4 -62 -9 -65 -10 -27 -16 -338 -25
-420 -13 -104 16 -138 27 -205 66 -207 121 -140 461 190 963 73 110 250 355
279 385 6 6 25 29 41 50 42 54 167 206 185 225 8 9 40 44 70 79 191 222 362
404 664 705 l271 270 3 -503 2 -502 -67 -62z m-6078 977 c50 -3 110 -7 135
-10 25 -2 86 -7 135 -10 50 -3 108 -8 130 -10 22 -2 72 -7 110 -10 39 -3 81
-8 95 -10 14 -2 52 -7 85 -10 115 -12 239 -31 348 -55 85 -19 159 -46 205 -76
21 -14 21 -16 7 -45 -37 -71 -276 -186 -645 -309 -143 -48 -423 -134 -525
-161 -16 -4 -79 -21 -140 -38 -60 -17 -110 -31 -111 -31 0 0 0 177 0 394 l-1
394 41 -3 c23 -2 82 -6 131 -10z m6141 -1821 c-2 -6 -55 -32 -118 -59 -62 -26
-126 -53 -143 -60 -130 -56 -308 -105 -395 -110 -108 -5 -133 33 -88 138 72
169 238 379 542 682 l201 200 3 -390 c1 -214 0 -395 -2 -401z m-6194 -2302
c142 -105 416 -287 582 -386 731 -436 1345 -631 1793 -569 204 28 364 100 513
233 117 104 372 241 602 324 117 42 350 112 408 123 14 2 50 10 80 18 66 17
221 47 390 75 162 27 165 28 230 35 30 3 66 8 80 10 14 2 52 7 85 10 33 4 76
8 95 11 102 11 142 14 210 20 41 3 95 7 120 9 25 2 95 7 155 11 61 3 130 7
155 9 25 2 158 6 295 10 138 4 279 8 315 9 36 2 71 1 78 -2 9 -3 12 -48 12
-179 l0 -175 -62 7 c-35 4 -72 9 -83 11 -11 2 -45 7 -75 10 -30 3 -68 7 -85 9
-135 17 -497 24 -665 13 -294 -21 -582 -94 -802 -204 -335 -168 -562 -413
-771 -831 l-81 -163 -1135 0 -1134 0 59 38 c158 103 205 216 134 323 -66 101
-236 188 -521 269 -167 47 -462 108 -604 125 -27 4 -57 8 -65 10 -18 5 -161
22 -250 31 -36 3 -81 7 -100 9 -19 2 -44 4 -56 4 -20 1 -20 4 -20 411 0 321 2
410 12 406 7 -3 54 -36 106 -74z m5688 -437 c74 -3 148 -8 164 -10 16 -2 57
-6 90 -9 34 -4 71 -8 81 -10 11 -2 47 -7 80 -10 103 -12 95 3 95 -167 0 -82
-1 -149 -3 -149 -2 0 -41 14 -88 31 -673 247 -1125 121 -1332 -371 -51 -122
-107 -331 -107 -400 0 -20 -3 -20 -499 -20 l-500 0 20 45 c136 307 339 579
549 736 219 163 517 277 819 314 30 4 63 9 75 11 12 3 98 7 191 11 94 3 171 7
173 8 1 1 15 1 30 0 15 -2 88 -6 162 -10z m6 -298 c12 -3 39 -8 60 -11 22 -4
47 -9 56 -12 9 -3 26 -7 37 -9 40 -8 191 -56 271 -86 l81 -31 -2 -82 c-6 -277
-178 -498 -442 -567 -60 -16 -120 -18 -537 -19 l-469 0 5 37 c7 58 32 160 60
246 77 240 196 394 370 478 111 54 188 68 354 64 74 -1 145 -5 156 -8z m-5681
-102 c50 -3 101 -8 115 -10 14 -2 48 -6 75 -9 97 -12 170 -23 368 -57 84 -14
298 -64 402 -94 296 -85 475 -192 475 -285 0 -62 -94 -144 -252 -219 l-86 -41
-197 0 -197 0 49 39 c131 103 155 205 65 270 -29 20 -142 65 -142 56 0 -2 -15
1 -32 6 -53 15 -172 23 -343 23 -160 0 -372 -11 -386 -20 -7 -4 -20 33 -36
101 -2 11 -6 73 -8 137 -3 114 -3 116 18 113 12 -2 63 -6 112 -10z m507 -409
c167 -14 278 -54 278 -99 0 -30 -74 -102 -168 -162 l-72 -46 -88 2 c-144 3
-265 45 -370 129 -59 46 -145 151 -134 162 4 4 68 10 142 14 74 3 136 7 137 8
4 3 209 -2 275 -8z"/>
</g>
</svg>
