<svg width="25" height="25" viewBox="0 0 25 25" fill="none" xmlns="http://www.w3.org/2000/svg">
<path d="M23.9299 0.954884C23.7004 0.805949 23.4438 0.703685 23.1748 0.653932C22.9058 0.60418 22.6296 0.607914 22.3621 0.664923C22.0945 0.721931 21.8408 0.831096 21.6154 0.986181C21.3901 1.14127 21.1975 1.33923 21.0486 1.56877L9.375 19.5625L3.68195 14.2986C3.48109 14.1129 3.24562 13.9686 2.98898 13.8739C2.73234 13.7791 2.45955 13.7359 2.1862 13.7466C1.63414 13.7682 1.11328 14.0083 0.738199 14.4139C0.36312 14.8196 0.164549 15.3576 0.186167 15.9097C0.207786 16.4617 0.447825 16.9826 0.853477 17.3577L8.32848 24.2688C8.32848 24.2688 8.54306 24.4535 8.64237 24.5181C8.87187 24.6671 9.12849 24.7695 9.39757 24.8193C9.66665 24.8691 9.94291 24.8654 10.2106 24.8084C10.4782 24.7514 10.732 24.6422 10.9574 24.487C11.1828 24.3319 11.3755 24.1338 11.5243 23.9042L24.5438 3.83613C24.6927 3.60666 24.795 3.35009 24.8447 3.08108C24.8945 2.81207 24.8907 2.5359 24.8337 2.26833C24.7767 2.00077 24.6675 1.74705 24.5125 1.52169C24.3574 1.29632 24.1594 1.10372 23.9299 0.954884Z" fill="#FFC099"/>
</svg>
