<svg width="26" height="25" viewBox="0 0 26 25" fill="none" xmlns="http://www.w3.org/2000/svg">
<path d="M4.19396 0.613618L12.9664 9.38609L21.6934 0.659071C21.8862 0.45389 22.1184 0.289752 22.3762 0.1765C22.6339 0.0632477 22.9119 0.00321432 23.1934 0C23.7961 0 24.3742 0.23944 24.8004 0.665647C25.2266 1.09185 25.4661 1.66991 25.4661 2.27266C25.4714 2.55129 25.4197 2.82807 25.3141 3.086C25.2086 3.34394 25.0515 3.57759 24.8524 3.77262L16.0118 12.4996L24.8524 21.3403C25.227 21.7067 25.4467 22.203 25.4661 22.7266C25.4661 23.3293 25.2266 23.9074 24.8004 24.3336C24.3742 24.7598 23.7961 24.9993 23.1934 24.9993C22.9038 25.0113 22.6148 24.9629 22.3448 24.8573C22.0749 24.7517 21.8298 24.591 21.6253 24.3856L12.9664 15.6132L4.21669 24.3629C4.02466 24.5613 3.79526 24.7196 3.54171 24.8288C3.28817 24.938 3.01551 24.996 2.73946 24.9993C2.13671 24.9993 1.55865 24.7598 1.13245 24.3336C0.706241 23.9074 0.4668 23.3293 0.4668 22.7266C0.461502 22.448 0.513198 22.1712 0.618716 21.9133C0.724235 21.6553 0.88135 21.4217 1.08042 21.2266L9.92107 12.4996L1.08042 3.65898C0.70585 3.29254 0.486208 2.79631 0.4668 2.27266C0.4668 1.66991 0.706241 1.09185 1.13245 0.665647C1.55865 0.23944 2.13671 0 2.73946 0C3.2849 0.00681798 3.80761 0.227266 4.19396 0.613618Z" fill="#FFC099"/>
</svg>
